<svg xmlns="http://www.w3.org/2000/svg" xmlns:xlink="http://www.w3.org/1999/xlink" width="292" height="68.59" viewBox="0 0 292 68.59">
  <defs>
    <clipPath id="clip-path">
      <rect id="Rectangle_81" data-name="Rectangle 81" width="292" height="68.59" fill="#f6a878"/>
    </clipPath>
  </defs>
  <g id="Group_252" data-name="Group 252" transform="translate(-297.046 -1281.996)">
    <g id="Group_52" data-name="Group 52" transform="translate(297.046 1281.996)">
      <g id="Group_50" data-name="Group 50" transform="translate(0 0)" clip-path="url(#clip-path)">
        <path id="Path_64" data-name="Path 64" d="M97.442,68.29c-.071,0-.141,0-.21,0C88.557,68.056,85.649,55,85.8,43.884a56.479,56.479,0,0,1,5.7-24.672A33.391,33.391,0,0,0,81.472,8.41L87.032,0A41.775,41.775,0,0,1,97.714,10.293C103.4,4.285,111.2.48,121.28.48c11.3,0,20.127,3.7,26.231,11,9.338,11.16,11.684,30.149,6.973,56.442l-9.923-1.778c5.182-28.919.26-42.171-4.782-48.2-4.157-4.968-10.207-7.383-18.5-7.383-7.769,0-13.88,3-18.253,8.947,6.417,14.28,6.7,30.756,3.888,39.672-2.477,7.862-6.912,9.11-9.473,9.11m-.363-34.938c-2.124,9.379-1.156,18.269.284,22.647a41.682,41.682,0,0,0,.943-15.009,58.131,58.131,0,0,0-1.227-7.638" transform="translate(55.416 -0.001)" fill="#f6a878"/>
      </g>
    </g>
  </g>
</svg>
