<svg xmlns="http://www.w3.org/2000/svg" xmlns:xlink="http://www.w3.org/1999/xlink" width="988" height="822" viewBox="0 0 988 822">
  <defs>
    <clipPath id="clip-path">
      <rect id="Rectangle_199" data-name="Rectangle 199" width="988" height="822" rx="96" transform="translate(44 1052)" fill="#3d4874"/>
    </clipPath>
  </defs>
  <g id="Mask_Group_67" data-name="Mask Group 67" transform="translate(-44 -1052)" clip-path="url(#clip-path)">
    <path id="Path_429" data-name="Path 429" d="M907.282,146.772c.09.144.178.289.268.435.044.072.088.145.133.217l.342.515q.718,1.084,1.429,2.166a187.683,187.683,0,0,0,14.415,18.377c5.52,6.267,11.576,12.553,17.993,18.769,6.438,6.243,13.113,12.306,20.349,18.636.011.008.023.02.034.03a465.3,465.3,0,0,0,47.232,35.636,601.774,601.774,0,0,0,52.559,31.206l1.367.73c-7.114-7.992-14.576-15.959-22.187-23.774-16.53-16.944-33.825-33.307-51.568-48.442-17.7-15.108-36.026-29.149-54.033-40.308a185.889,185.889,0,0,0-25.81-13.622q-1.44-.578-2.882-1.161c.121.195.24.391.36.589m-486.733,419.2h-.6a200.388,200.388,0,0,1-44.03-6.13,267.943,267.943,0,0,1-38.583-12.989l-.055-.024C298.7,530.259,264,509.006,231.949,485.451a763.772,763.772,0,0,1-88.819-77.272,953.1,953.1,0,0,1-76.371-87.341A1012.091,1012.091,0,0,1,1.327,225.672S.884,224.964,0,223.547l23.308-14.073q11.656-7.039,23.311-14.075l23.307-14.075,23.31-14.073q1.19,1.9,1.189,1.9A902.719,902.719,0,0,0,152.907,254.2a844.448,844.448,0,0,0,67.555,77.29,655.56,655.56,0,0,0,76.045,66.245c26.658,19.636,54.685,36.522,83.17,48.768a.255.255,0,0,0,.035.014c15.42,6.516,30.634,10.329,42.343,10.561a55.689,55.689,0,0,0,8.131-.488c1.282-.078,2.258-.448,3.384-.58.93-.344,2.019-.466,2.794-.844A17.309,17.309,0,0,0,440.6,453.2a12.508,12.508,0,0,0,2.958-2.339,17.874,17.874,0,0,0,2.471-3.171,31.42,31.42,0,0,0,2.157-4.7,42.7,42.7,0,0,0,1.513-6.472,60.3,60.3,0,0,0,.484-7.992V428.5a57.58,57.58,0,0,0-3.915-18.34,121.3,121.3,0,0,0-11.756-22.729c-10.379-16.209-25.035-33.355-41-50.9-16.023-17.623-33.524-35.778-51.078-55.877-17.479-20.165-35.392-42.22-50.591-69.809-.01-.021-.021-.04-.031-.059q-2.222-4.42-4.443-8.84-1.08-2.228-2.163-4.456l-1.94-4.684c-1.258-3.151-2.589-6.218-3.715-9.465q-1.571-4.956-3.144-9.913a163.639,163.639,0,0,1-6.308-43.018,136.379,136.379,0,0,1,10.186-52.478A124.968,124.968,0,0,1,353.93,8.1,146.034,146.034,0,0,1,397.057.055a170.327,170.327,0,0,1,48.751,6.092q2.808.784,5.618,1.563,1.4.4,2.8.8,1.332.468,2.668.933l10.648,3.83c3.455,1.371,6.749,2.893,10.12,4.361l5.018,2.243q2.378,1.228,4.758,2.454c25.488,13.088,47.161,29.308,66.388,46.731a.417.417,0,0,1,.038.034c30.209,27.549,59.463,55.421,88.446,82.967s57.647,54.822,86.707,80.955c29.047,26.163,58.435,51.34,88.571,74.853a914.238,914.238,0,0,0,93.357,63.67l9.56,5.53,9.56,5.522,19.5,10.024q4.875,2.51,9.744,5.019,4.975,2.224,9.944,4.446l19.861,8.943a.4.4,0,0,0,.038.014c3.329,1.365,6.682,2.694,10.071,3.949s6.8,2.441,10.226,3.559c6.847,2.234,13.744,4.186,20.595,5.811s13.652,2.92,20.3,3.833a161.379,161.379,0,0,0,19.289,1.542l4.422-.007q2.141-.078,4.283-.161l4.134-.309q1.982-.231,3.964-.462a71.116,71.116,0,0,0,13.808-3.219,44.684,44.684,0,0,0,10.216-5,36.809,36.809,0,0,0,5.365-4.382,885.4,885.4,0,0,1-105-47.319,709.467,709.467,0,0,1-61.64-36.626,572.208,572.208,0,0,1-58.709-44.417l-.038-.034c-7.988-6.984-16.3-14.512-24.378-22.351-8.11-7.858-16.118-16.127-23.967-25.038a295.015,295.015,0,0,1-22.921-29.4l-2.747-4.166-.7-1.07q-.421-.705-.844-1.406-.847-1.406-1.69-2.811c-2.2-3.438-4.639-8.258-7-12.635a147.5,147.5,0,0,1-10.6-27.8,108.055,108.055,0,0,1-3.3-36.34A93.524,93.524,0,0,1,800.739,93.5l.039-.08a123.75,123.75,0,0,1,13.677-22.485,100.041,100.041,0,0,1,18.787-18.3C847.3,42.009,864.37,35.979,882.22,34.141a125.375,125.375,0,0,1,36.4,2.245c3.047.688,6.085,1.474,9.125,2.205,3.037.774,6.023,1.823,9.037,2.719l2.255.7q.993.36,1.986.721,1.959.72,3.918,1.441l3.8,1.415,2.886,1.2c7.708,3.208,14.895,6.664,21.684,10.29q10.21,5.428,19.557,11.248c24.939,15.5,46.724,32.456,67.465,50.1,20.7,17.666,40.135,36.078,58.894,55.3,9.375,9.627,18.552,19.45,27.624,29.726,4.541,5.152,9.05,10.405,13.6,15.959,4.581,5.618,9.063,11.235,14.3,18.778.011.018.026.035.035.052,7.381,10.825,14.12,21.8,20.415,33.191a367.548,367.548,0,0,1,17.278,35.642,287.228,287.228,0,0,1,10.709,29.906c24.192,6.8,48.669,12.5,73.256,17.168A740.109,740.109,0,0,0,1419.1,366.4c39.211.213,78.058-3.153,115.524-10.761a420.707,420.707,0,0,0,106.215-37.172l1.862-.9q12.711,24.081,12.711,24.079,6.356,12.04,12.709,24.079t12.712,24.08l12.711,24.08-2.4,1.183a529.6,529.6,0,0,1-134.384,47.213c-46.1,9.393-92.641,13.3-138.666,13.029a848.556,848.556,0,0,1-141.481-14.07q-27.423-5.191-54.448-11.888a112.285,112.285,0,0,1-6.442,13.561A131.607,131.607,0,0,1,1201,484.385c-.018.02-.035.04-.054.062a146.314,146.314,0,0,1-29.868,26.617,153.673,153.673,0,0,1-34.741,17.274,179.941,179.941,0,0,1-35.062,8.359c-2.842.344-5.7.716-8.53.991-2.8.22-5.618.46-8.406.631l-8.282.306-8.158.011a269.885,269.885,0,0,1-32.353-2.537c-10.473-1.44-20.658-3.4-30.621-5.76s-19.7-5.128-29.279-8.254q-7.179-2.344-14.251-4.96t-14.055-5.513c-.017-.008-.035-.014-.052-.021L923.771,501.05q-5.875-2.647-11.745-5.3l-11.409-5.838-22.776-11.742L866.8,471.829q-5.512-3.187-11.024-6.376a1023.21,1023.21,0,0,1-104.9-71.484C717.9,368.248,686.489,341.3,656.071,313.9c-30.455-27.393-59.787-55.31-88.805-82.9S509.53,176.072,480.6,149.688l-.034-.031c-13.753-12.515-28.281-22.95-42.47-30.226l-2.651-1.41-2.627-1.13c-1.745-.736-3.493-1.6-5.213-2.286q-2.556-.866-5.085-1.81l-1.264-.477L420.028,112l-2.438-.657a62.667,62.667,0,0,0-17.313-2.421,38.261,38.261,0,0,0-9.574,1.7,15.122,15.122,0,0,0-5.643,3.23,15.544,15.544,0,0,0-4.188,5.845,27.614,27.614,0,0,0-1.861,10.506,56.131,56.131,0,0,0,2.087,13.2q.625,1.826,1.153,3.679c.417,1.244,1.053,2.516,1.528,3.787l.743,1.919.99,1.936q.991,1.944,1.917,3.918l.016.028c8.748,16.057,21.992,33.15,37.095,50.425,15.126,17.354,32.11,35.018,49.539,54.153,17.384,19.239,35.519,39.725,52.09,65.35a229.163,229.163,0,0,1,22.146,43.5,166.015,166.015,0,0,1,10.763,54.383v.075a167.785,167.785,0,0,1-1.583,25.519,150.537,150.537,0,0,1-6.266,26.18,138.915,138.915,0,0,1-11.964,25.725,126.914,126.914,0,0,1-18.106,23.3,120.81,120.81,0,0,1-23.261,18.54A125.65,125.65,0,0,1,471.8,558.147c-4.459,1.642-8.866,2.706-13.324,3.885-4.375.9-8.847,1.912-13.147,2.409a158.945,158.945,0,0,1-23.792,1.528Z" transform="translate(1470.046 1675.92) rotate(170)" fill="#f6a878"/>
    <path id="Path_501" data-name="Path 501" d="M8034.191,2541.431c84.568,136.5,104.8,232.479,104.8,232.479" transform="matrix(0.588, -0.809, 0.809, 0.588, -6615.613, 6565.049)" fill="none" stroke="#3d4874" stroke-linecap="round" stroke-width="13" opacity="0.28"/>
  </g>
</svg>
