<svg xmlns="http://www.w3.org/2000/svg" width="91.569" height="80.123" viewBox="0 0 91.569 80.123">
  <path id="Icon_awesome-sms" data-name="Icon awesome-sms" d="M45.785,2.25C20.5,2.25,0,18.9,0,39.45c0,8.871,3.827,16.99,10.194,23.375C7.959,71.839.483,79.869.393,79.959a1.422,1.422,0,0,0-.268,1.556,1.4,1.4,0,0,0,1.306.858c11.858,0,20.746-5.687,25.146-9.193a54.544,54.544,0,0,0,19.208,3.47c25.289,0,45.785-16.651,45.785-37.2S71.074,2.25,45.785,2.25ZM22.928,50.9H20.746a1.435,1.435,0,0,1-1.431-1.431V46.6a1.435,1.435,0,0,1,1.431-1.431h2.2c1.073,0,1.86-.626,1.86-1.18a.947.947,0,0,0-.376-.68l-3.917-3.362a6.611,6.611,0,0,1-2.379-5.026c0-3.809,3.4-6.9,7.583-6.9H27.9a1.435,1.435,0,0,1,1.431,1.431v2.862A1.435,1.435,0,0,1,27.9,33.745H25.7c-1.073,0-1.86.626-1.86,1.18a.947.947,0,0,0,.376.68l3.917,3.362a6.611,6.611,0,0,1,2.379,5.026C30.529,47.8,27.113,50.9,22.928,50.9Zm34.3-1.431A1.435,1.435,0,0,1,55.8,50.9H52.939a1.435,1.435,0,0,1-1.431-1.431v-12.2l-4.435,9.98a1.429,1.429,0,0,1-2.557,0l-4.453-9.98v12.2A1.435,1.435,0,0,1,38.631,50.9H35.769a1.435,1.435,0,0,1-1.431-1.431v-18.6A2.87,2.87,0,0,1,37.2,28h2.862a2.848,2.848,0,0,1,2.558,1.574l3.166,6.331,3.166-6.331A2.868,2.868,0,0,1,51.508,28h2.862a2.87,2.87,0,0,1,2.862,2.862ZM65.869,50.9h-2.2a1.435,1.435,0,0,1-1.431-1.431V46.6a1.435,1.435,0,0,1,1.431-1.431h2.2c1.073,0,1.86-.626,1.86-1.18a.947.947,0,0,0-.376-.68l-3.917-3.362a6.611,6.611,0,0,1-2.379-5.026c0-3.809,3.4-6.9,7.583-6.9h2.182a1.435,1.435,0,0,1,1.431,1.431v2.862a1.435,1.435,0,0,1-1.431,1.431h-2.2c-1.073,0-1.86.626-1.86,1.18a.947.947,0,0,0,.376.68l3.917,3.362a6.611,6.611,0,0,1,2.379,5.026C73.452,47.8,70.054,50.9,65.869,50.9Z" transform="translate(0 -2.25)" fill="#f4f4f4"/>
</svg>
