<svg xmlns="http://www.w3.org/2000/svg" xmlns:xlink="http://www.w3.org/1999/xlink" width="988" height="695" viewBox="0 0 988 695">
  <defs>
    <clipPath id="clip-path">
      <rect id="Rectangle_234" data-name="Rectangle 234" width="988" height="695" rx="96" transform="translate(44 1375)" fill="#3d4874"/>
    </clipPath>
    <clipPath id="clip-path-2">
      <rect id="Rectangle_233" data-name="Rectangle 233" width="1026.938" height="796.834" fill="none"/>
    </clipPath>
  </defs>
  <g id="Mask_Group_71" data-name="Mask Group 71" transform="translate(-44 -1375)" clip-path="url(#clip-path)">
    <g id="Group_249" data-name="Group 249" transform="translate(-10.469 1402.629)">
      <g id="Group_248" data-name="Group 248" clip-path="url(#clip-path-2)">
        <path id="Path_494" data-name="Path 494" d="M682.454,199.1a.73.73,0,0,1-.045.064c.049-.072.068-.1.045-.064m164.032,28.062c-.539-19.011-.326-37.93.876-56.469a352.272,352.272,0,0,1,7.175-53.513c2.535-11.245,5.9-21.96,9.846-30.063.985-1.974,1.974-3.8,2.941-5.361a36.008,36.008,0,0,1,2.5-3.5,19.651,19.651,0,0,1,1.986,3.5c1.867,4.12,3.6,10.707,4.516,18.135a165.526,165.526,0,0,1,1.038,24.353c-.458,17.241-2.832,35.515-6.31,53.779a598.165,598.165,0,0,1-22.839,83.529q-1.239-17.23-1.735-34.4M871.648,76.389h0m-3.43.753h0l.2.033a.742.742,0,0,1-.209-.033M395.7,372.3a295.721,295.721,0,0,1,8.312-62.736.178.178,0,0,0,.008-.031,143.134,143.134,0,0,1,17.424-41.523,107.534,107.534,0,0,1,12.773-16.77c1.089-1.165,2.272-2.306,3.266-3.249l.4-.363c.033.153.067.307.1.462l.134.615.187,1c.323,1.625.582,3.383.85,5.145l0,.024.118,1.5a116.165,116.165,0,0,1-2.318,37.98,173.922,173.922,0,0,1-13.97,39.282,230.275,230.275,0,0,1-27.319,42.622q0-1.968.026-3.952m.156-189.9c-1.942,1.392-3.795,2.916-5.646,4.443l-1.372,1.132-1.217,1.081-2.432,2.167c-2.516,2.337-4.767,4.561-6.973,6.9A184.079,184.079,0,0,0,356,227.082a219.849,219.849,0,0,0-27.022,64.39l-.009.037a371.661,371.661,0,0,0-10.446,79.57,251.855,251.855,0,0,0,2.668,42.273,182.6,182.6,0,0,0,5.91,26.414q-15.96,12.282-32.7,23.34c-3.329,2.231-6.66,4.457-10.076,6.533-3.4,2.1-6.766,4.269-10.191,6.324L263.8,482.008c-3.44,2.025-6.979,3.848-10.462,5.788-14.02,7.562-28.332,14.5-42.915,20.682a429.219,429.219,0,0,1-97.556,28.481,346.733,346.733,0,0,1-49.752,4.634c-8.244.207-16.419-.011-24.457-.533a211.81,211.81,0,0,1-23.492-2.724l-1.381-.223-3.446,18.982L6.891,576.081q-1.722,9.493-3.445,18.987L0,614.052l1.937.322a288.244,288.244,0,0,0,31.62,3.7q15.635,1.019,31.022.687a423.676,423.676,0,0,0,60.7-5.625A506.3,506.3,0,0,0,240.4,579.6c16.961-7.188,33.512-15.206,49.641-23.909,4-2.222,8.075-4.34,12.019-6.653l11.842-6.929c3.918-2.351,7.76-4.816,11.641-7.224,3.9-2.381,7.7-4.91,11.483-7.443q16.515-10.873,32.219-22.764a119.989,119.989,0,0,0,29.484,17.266c.017.007.036.013.052.021A96.122,96.122,0,0,0,418.51,527.6a92.309,92.309,0,0,0,21,1.18,103.107,103.107,0,0,0,37.762-9.9,141.825,141.825,0,0,0,26.373-16.4,200.833,200.833,0,0,0,20.744-18.693,328,328,0,0,0,32.434-39.656c18.95-26.978,34.4-54.592,48.751-82.344l.133-.258c-.314,10.527-.317,21.222.129,32.133a286.8,286.8,0,0,0,4.184,39.241c2.53,13.5,6.228,27.548,12.885,41.943a133.937,133.937,0,0,0,9.03,16.191,115.513,115.513,0,0,0,12.337,15.49A100.92,100.92,0,0,0,678.22,529.85l.054.021a90.416,90.416,0,0,0,49.98,5.758,106.557,106.557,0,0,0,22.24-6.249,146.388,146.388,0,0,0,35.364-20.908,224.108,224.108,0,0,0,25.183-23.263,954.067,954.067,0,0,0,38.817,108.367,750.584,750.584,0,0,0,51.216,98.907c19.76,31.819,42.5,62.344,69.108,90.121q26.609,27.778,1.263,1.329l13.873-13.41q6.936-6.707,13.873-13.409l13.873-13.41,13.873-13.409-1.051-1.11c-22.171-23.135-41.853-49.389-59.253-77.427a673.386,673.386,0,0,1-45.891-88.711,884.583,884.583,0,0,1-38.207-108.5q-7.249-25.641-13.112-51.693,8.113-14.462,15.388-29.2,14.228-28.721,25.811-58.369,11.648-29.643,20.823-60.248A637.775,637.775,0,0,0,946.867,192.5c4.041-21.358,7.019-43.213,7.654-66.321a241.48,241.48,0,0,0-1.634-36.047c-1.565-11.859-4.1-24.4-9.747-37.843l-.375-.883c-.209-.492-.424-.981-.643-1.474a97.679,97.679,0,0,0-9.185-16.1,82.96,82.96,0,0,0-14.064-15.418,76.884,76.884,0,0,0-18.891-11.8A80.472,80.472,0,0,0,879.282.75l-.063-.01A74.139,74.139,0,0,0,860.767.432a70.775,70.775,0,0,0-18.628,4.68,75.307,75.307,0,0,0-18.022,10.455A87.619,87.619,0,0,0,811.152,28.1a111.74,111.74,0,0,0-9.279,12.744c-2.611,4.2-4.842,8.34-6.865,12.438a184.821,184.821,0,0,0-9.515,23.909c-2.515,7.8-4.547,15.455-6.255,23.022a427.868,427.868,0,0,0-8.9,65.46c-1.387,21.436-1.6,42.616-1.01,63.646a960.569,960.569,0,0,0,12.079,124.57q2.848,17.685,6.274,35.262c-9.828,15.31-20.49,29.787-31.862,42.1a151.548,151.548,0,0,1-17.562,16.459,70.676,70.676,0,0,1-16.439,10,29.3,29.3,0,0,1-6.022,1.737,13.955,13.955,0,0,1-4.135.162,13.648,13.648,0,0,1-3.547-.93l-.01,0a33.562,33.562,0,0,1-4.359-2.368,32.119,32.119,0,0,1-3.782-3.234,39.318,39.318,0,0,1-3.64-4.614,58,58,0,0,1-3.467-6.253,99.058,99.058,0,0,1-6.911-23.22,211.064,211.064,0,0,1-2.985-28.618c-.842-20.1.272-41.434,2.215-63.076,1.955-21.69,4.811-43.748,7.729-66.371,1.451-11.336,2.93-22.8,4.211-34.706.637-5.957,1.225-12.022,1.682-18.342s.791-12.886.747-20.179c0-.016,0-.029,0-.044-.042-2.993-.121-6.09-.426-9.828-.1-1.006-.168-1.9-.3-3-.074-.565-.152-1.125-.22-1.692s-.149-1.1-.276-1.819c-.238-1.36-.44-2.574-.891-4.4l-.312-1.26c-.055-.211-.109-.422-.166-.632-.08-.279-.162-.556-.245-.833-.333-1.11-.7-2.214-1.082-3.3-.388-1.024-.838-2.108-1.3-3.142q-.361-.774-.724-1.548c-.171-.329-.34-.659-.511-.986q-.309-.56-.619-1.118-.637-1.11-1.329-2.189c-.236-.353-.471-.71-.705-1.064l-.364-.526-.468-.645a45.49,45.49,0,0,0-5.17-5.777c-.372-.364-1.182-1.065-1.871-1.624-.714-.578-1.451-1.139-2.2-1.673a43.108,43.108,0,0,0-4.714-2.91c-.733-.4-1.8-.906-2.8-1.329s-2.046-.823-3.1-1.176a41.06,41.06,0,0,0-18.518-1.737,44.3,44.3,0,0,0-8.859,2.258c-1.309.5-2.413.994-3.6,1.567-1.141.555-2.347,1.2-3.362,1.81-1.465.9-2.9,1.884-4.277,2.926l-.821.65-.694.576-1.361,1.184-.667.609-.564.537-.935.94c-.587.6-1.3,1.342-1.748,1.852L623,149.907l-.648.778-.52.656q-.515.663-1.027,1.327a96.242,96.242,0,0,0-5.549,8.317c-2.9,4.823-5.013,8.9-7.109,12.98-4.081,8.054-7.6,15.629-11.058,23.161-6.862,15.017-13.309,29.683-19.83,44.235-13,29.063-26.134,57.59-40.3,85.115-13.293,25.768-27.457,50.819-43.182,73.161a252.459,252.459,0,0,1-24.661,30.307c-8.451,8.755-17.423,15.73-24.641,19.091a26.276,26.276,0,0,1-9.419,2.7,15.854,15.854,0,0,1-3.433-.188,328.855,328.855,0,0,0,29.912-34.231,304.126,304.126,0,0,0,30.795-49.754A250.95,250.95,0,0,0,512.4,310.711a192.991,192.991,0,0,0,3.5-63.621q-.134-1.356-.273-2.718a.21.21,0,0,1-.007-.043c-.442-3.022-.9-6.046-1.512-9.167q-.108-.579-.215-1.16l-.292-1.4q-.327-1.464-.651-2.926c-.113-.487-.226-.972-.339-1.46q-.086-.361-.172-.728c-.081-.292-.16-.585-.241-.876q-.482-1.744-.961-3.488A104.308,104.308,0,0,0,500.159,197c-8.273-13.41-20.228-23.795-34.667-28.852-14.417-5.12-30.269-4.51-45.021.771q-2.088.767-4.154,1.643a98.849,98.849,0,0,0-20.464,11.84" fill="#fff"/>
        <path id="Path_495" data-name="Path 495" d="M682.455,199.1c.023-.034,0-.008-.045.063.015-.02.031-.041.045-.063" fill="#929192"/>
        <path id="Path_496" data-name="Path 496" d="M868.219,77.142h0a.729.729,0,0,0,.208.033Z" fill="#929192"/>
        <path id="Path_497" data-name="Path 497" d="M971.451,783.928l-.005.005q24.723,25.8.005-.005" fill="#929192"/>
        <path id="Path_498" data-name="Path 498" d="M787.355,387.048l-.081-.039c.138.715.27,1.43.409,2.143q-3.99,6.217-8.166,12.215L800.34,487l-2.308,11.108q6.761-6.179,13.01-12.9c.173.6.359,1.187.534,1.782l.038-.183Z" fill="#cccfdb"/>
        <path id="Path_499" data-name="Path 499" d="M635.5,173.179a5.5,5.5,0,1,0-10.652-2.74c-.259,1-25.865,101.432-29.829,195.461-.36,6.768-.977,13.14-1.8,19.133q6.359-11.6,12.358-23.245l.132-.258c-.12,4.042.562-4.449.541-.355.2-2.394-.375,7.738-.243,5.247,3.918-92.9,29.239-192.25,29.494-193.243" fill="#cccfdb"/>
        <path id="Path_500" data-name="Path 500" d="M327.1,439.766q-3.686,2.835-7.414,5.6c9.071,27.408,22.776,49.64,40.528,66.006q4.476-3.258,8.894-6.591c-19.018-16.775-33.294-34.019-42.008-65.019" fill="#cccfdb"/>
      </g>
    </g>
  </g>
</svg>
